<svg xmlns="http://www.w3.org/2000/svg" viewBox="0 0 512 512" fill="#88f"><path d="M488.852 29.013l-.853-.853-25.6-25.6c-3.413-3.413-8.533-3.413-11.947 0-3.413 3.413-3.413 8.533 0 11.947L461.545 25.6h-78.507l11.093-11.093c1.707-1.707 2.56-3.413 2.56-5.973s-.853-4.267-2.56-5.973c-3.413-3.413-8.533-3.413-11.947 0l-25.6 25.6c-1.707.853-2.56 3.413-2.56 5.12v1.707c0 1.707.853 3.413 1.707 4.267l.853.853 25.6 25.6c3.413 3.413 8.533 3.413 11.947 0s3.413-8.533 0-11.947l-11.093-11.093h78.507L450.452 53.76c-1.707 1.707-2.56 3.413-2.56 5.973s.853 4.267 2.56 5.973 3.413 2.56 5.973 2.56 4.267-.853 5.973-2.56l25.6-25.6c1.707-.853 2.56-3.413 2.56-5.12v-1.707c0-1.706-.853-3.412-1.706-4.266zM332.692 179.2c-7.68 0-15.36 2.56-21.333 7.68v-7.68c0-20.48-16.213-42.667-38.4-42.667-7.68 0-15.36 2.56-21.333 7.68 0-19.627-17.067-41.813-38.4-41.813-7.68 0-15.36 2.56-21.333 7.68V42.667c0-20.48-16.213-42.667-38.4-42.667-22.187 0-38.4 22.187-38.4 42.667v180.907c-7.68-16.213-17.92-31.573-28.16-41.813-13.653-13.653-40.96-14.507-56.32-1.707-4.267 4.267-18.773 19.627.853 46.933 17.92 25.6 32.427 81.92 32.427 114.347 0 68.267 44.373 98.987 59.733 107.52v54.613c0 5.12 3.413 8.533 8.533 8.533s8.533-3.413 8.533-8.533v-59.733c0-3.413-1.707-5.973-5.12-7.68-2.56-.853-54.613-25.6-54.613-94.72 0-31.573-13.653-93.867-35.84-124.587-5.973-7.68-11.093-17.92-3.413-23.893 8.533-6.827 25.6-6.827 33.28.853 21.333 21.333 40.107 66.56 40.107 87.893 0 5.12 3.413 8.533 8.533 8.533s8.533-3.413 8.533-8.533V42.667c0-11.947 9.387-25.6 21.333-25.6 11.947 0 21.333 13.653 21.333 25.6V230.4c0 5.12 3.413 8.533 8.533 8.533s8.533-3.413 8.533-8.533v-85.333c0-11.947 9.387-25.6 21.333-25.6 11.947 0 21.333 13.653 21.333 25.6v93.867c0 5.12 3.413 8.533 8.533 8.533s8.533-3.413 8.533-8.533V179.2c0-11.947 9.387-25.6 21.333-25.6 11.947 0 21.333 13.653 21.333 25.6V256c0 5.12 3.413 8.533 8.533 8.533s8.533-3.413 8.533-8.533v-35.84c.853-11.093 10.24-23.893 21.333-23.893 11.947 0 21.333 13.653 21.333 25.6v119.467c0 64.853 0 64.853-23.893 97.28-1.707 1.707-1.707 4.267-1.707 5.973v58.88c0 5.12 3.413 8.533 8.533 8.533 5.12 0 8.533-3.413 8.533-8.533v-57.173c25.6-34.133 25.6-38.4 25.6-104.96V221.867c.005-20.48-16.209-42.667-38.395-42.667z"/><path d="M243.092 435.2c5.12 0 8.533-3.413 8.533-8.533s-3.413-8.533-8.533-8.533h-25.6c-5.12 0-8.533 3.413-8.533 8.533s3.413 8.533 8.533 8.533h25.6zm8.533 17.067h-42.667c-5.12 0-8.533 3.413-8.533 8.533 0 5.12 3.413 8.533 8.533 8.533h42.667c5.12 0 8.533-3.413 8.533-8.533 0-5.12-3.413-8.533-8.533-8.533z"/></svg>