<svg xmlns="http://www.w3.org/2000/svg" width="512" height="512" viewBox="0 0 418.683 418.683"><path d="M310.332 82.426c22.73 0 41.214-18.486 41.214-41.213S333.062 0 310.332 0c-22.724 0-41.213 18.486-41.213 41.213s18.489 41.213 41.213 41.213zm-201.986 0c22.727 0 41.213-18.486 41.213-41.213S131.073 0 108.346 0C85.618 0 67.138 18.486 67.138 41.213s18.486 41.213 41.208 41.213zm98.3 128.423l-31.21-108.68c-1.777-10.003-10.353-17.226-20.518-17.226H61.786c-10.171 0-18.746 7.223-20.525 17.226l-31.213 108.68a5.291 5.291 0 0 0 .026 3.06 18.598 18.598 0 0 0-.236 2.908c0 11.522 9.373 20.897 20.903 20.897 10.074 0 18.701-7.201 20.428-16.688l13.476-50.035-22.288 108.005a20.846 20.846 0 0 0-1.471 7.701c0 11.522 9.375 20.898 20.905 20.898h2.273v90.195c0 11.528 9.375 20.893 20.9 20.893 11.522 0 20.898-9.375 20.898-20.893v-90.195h4.995v90.195c0 11.528 9.373 20.893 20.898 20.893s20.901-9.375 20.901-20.893v-90.195h2.278c11.525 0 20.896-9.376 20.896-20.898 0-2.661-.494-5.245-1.473-7.712l-22.276-107.999 13.368 49.61c1.824 9.917 10.457 17.118 20.53 17.118 11.522 0 20.893-9.375 20.893-20.897 0-.95-.082-1.916-.236-2.914a5.394 5.394 0 0 0 .01-3.054zm201.961 3.054c.252-.808.31-1.68.141-2.561L388.234 102.51c-1.648-10.184-10.305-17.567-20.583-17.567H253.01c-10.283 0-18.936 7.391-20.552 17.431l-20.545 108.968a5.319 5.319 0 0 0 .139 2.561 18.343 18.343 0 0 0-.234 2.914c0 11.522 9.375 20.897 20.903 20.897 10.073 0 18.698-7.201 20.539-17.238l12.946-80.925-.167 258.24c0 11.528 9.37 20.893 20.897 20.893s20.902-9.375 20.902-20.893V269.967h4.986V397.79c0 11.528 9.377 20.893 20.91 20.893 11.521 0 20.893-9.375 20.893-20.897l-.169-258.235 12.967 81.045c1.82 9.917 10.452 17.118 20.525 17.118 11.522 0 20.897-9.375 20.897-20.897a18.256 18.256 0 0 0-.24-2.914z" fill="#00AD5D"/></svg>