<svg xmlns="http://www.w3.org/2000/svg" height="512" viewBox="-32 0 448 448.08014" width="512"><path d="M241.328 273.914a103.713 103.713 0 0 0 38.45-80.715v-49.68c-.25-8.8-11.075-23.238-29.708-39.296-7.11-6.102-13.84-11.2-18.11-14.239l-38.792 29.434a120.248 120.248 0 0 1-71.734 24.504h-1.817c-8.742.027-15.82 7.113-15.84 15.855V193.2a103.685 103.685 0 0 0 38.399 80.68 109.337 109.337 0 0 0 13.601 9.434 106.817 106.817 0 0 0 34.88 12.457l1.054.168 1.09-.176a106.738 106.738 0 0 0 34.847-12.45 109.792 109.792 0 0 0 13.68-9.398zm0 0" fill="#00AD5D"/><path d="M71.777 190.09a136.22 136.22 0 0 1-17.922 67.476L43.688 275.36c25.316 6.942 52 7.192 77.44.723a119.415 119.415 0 0 1-33.35-82.883v-33.52c.03-17.538 14.25-31.745 31.788-31.757h1.809a104.099 104.099 0 0 0 62.105-21.242l43.497-33a8.008 8.008 0 0 1 9.28-.274 281.04 281.04 0 0 1 24.247 18.676c23.023 19.848 34.879 37.078 35.273 51.2V193.2a119.461 119.461 0 0 1-33.601 83.2 151.33 151.33 0 0 0 77.426-1.192h.14l-10.039-17.598a136.23 136.23 0 0 1-17.926-67.52V88.083c-.035-30.914-25.09-55.965-56-56a54.559 54.559 0 0 0-18.562 3.2c-.094 0-.192 0-.277.046a8.092 8.092 0 0 1-1.497.223 7.883 7.883 0 0 1-1.601.144 7.021 7.021 0 0 1-1.16-.297 7.795 7.795 0 0 1-1.742-.527 9.766 9.766 0 0 1-1.008-.734 8.288 8.288 0 0 1-1.426-1.184c-.055-.066-.145-.09-.2-.16C204.884 3.719 165.669-7.41 130.47 5.023 95.266 17.457 71.742 50.75 71.777 88.082zm311.735 257.992c-4.29-62.996-56.598-111.926-119.735-112h-24c0 26.508-21.492 48-48 48-26.511 0-48-21.492-48-48h-24C56.57 335.984 4.16 385.008.04 448.082zm0 0" fill="#00AD5D"/><path d="M190.465 311.969l-2.403-.395a122.8 122.8 0 0 1-28.285-8.398v32.906c0 17.672 14.325 32 32 32 17.672 0 32-14.328 32-32v-32.906a122.372 122.372 0 0 1-28.257 8.39l-2.399.403a7.978 7.978 0 0 1-2.656 0zm0 0" fill="#00AD5D"/></svg>