<svg xmlns="http://www.w3.org/2000/svg" viewBox="0 0 512 512" width="512" height="512"><circle cx="226.33" cy="139.91" r="8.611" fill="#1CC568"/><circle cx="284.88" cy="139.91" r="8.611" fill="#1CC568"/><path d="M257.776 397.334c-14.309 0-25.951 11.641-25.951 25.951s11.641 25.951 25.951 25.951c14.309 0 25.951-11.641 25.951-25.951-.001-14.31-11.642-25.951-25.951-25.951zm0 36.773c-5.967 0-10.823-4.855-10.823-10.823 0-5.967 4.855-10.823 10.823-10.823 5.967 0 10.823 4.855 10.823 10.823-.001 5.968-4.856 10.823-10.823 10.823z" fill="#1CC568"/><path d="M428.378 496.872h-24.803v-17.313a7.565 7.565 0 0 0-15.128 0v17.313h-15.706a21.14 21.14 0 0 0 .902-6.097V358.918c0-13.426-10.923-24.349-24.349-24.349h-35.785c12.648-8.328 23.337-19.522 31.181-32.908l4.731 1.107c22.978 5.377 39.026 25.613 39.026 49.212v91.944a7.565 7.565 0 0 0 15.128 0V351.98c0-30.662-20.852-56.956-50.707-63.942l-32.063-7.502c-11.034-2.582-18.74-12.299-18.74-23.631v-11.39a85.894 85.894 0 0 0 22.002-19.696c18.346-.184 33.248-14.976 33.616-33.278 8.865-2.74 15.325-11.011 15.325-20.764v-42.11c0-10.198-7.072-18.755-16.562-21.083a7.506 7.506 0 0 0 1.658-.243 7.564 7.564 0 0 0 5.331-9.274c-7.831-29.013-20.453-52.091-37.513-68.593C306.286 11.479 284.538 1.238 261.284.037c-1.132-.054-21.801-.928-45.223 10.128-10.684-5.368-22.607-8.195-34.639-8.195-42.554 0-77.174 34.62-77.174 77.174 0 27.119 14.068 51.938 37.025 65.917v26.716c0 11.982 9.748 21.73 21.73 21.73h11.371c5.671 23.002 20.702 42.346 40.807 53.765v9.633c0 11.332-7.706 21.049-18.741 23.631l-32.062 7.502c-29.856 6.985-50.708 33.28-50.708 63.942v144.892H83.622a7.565 7.565 0 0 0 0 15.128h344.756a7.565 7.565 0 0 0 0-15.128zm-92.799-290.388a84.517 84.517 0 0 0 4.328-12.978h2.581a18.825 18.825 0 0 1-6.909 12.978zm22.3-76.818v42.11a6.61 6.61 0 0 1-6.602 6.602h-8.886v-55.314h8.886a6.61 6.61 0 0 1 6.602 6.602zm-216.375-3.007c-13.887-11.648-22.129-28.908-22.129-47.515 0-34.212 27.834-62.046 62.046-62.046a62.31 62.31 0 0 1 18.249 2.744 101.924 101.924 0 0 0-6.317 4.951 7.563 7.563 0 0 0-.859 10.662 7.562 7.562 0 0 0 10.662.859c26.233-22.322 57.057-21.186 57.346-21.168 19.497 1.007 37.968 9.823 54.901 26.202 15.069 14.576 26.315 35.323 33.425 61.662.644 2.386 2.369 4.176 4.498 5.031a21.71 21.71 0 0 0-2.05-.104h-9.073c-.756-3.38-3.769-5.908-7.377-5.908a7.523 7.523 0 0 0-4.083 1.203c-.023.015-.044.022-.067.037-8.947 5.871-30.183 9.476-41.469 9.476-27.61 0-54.198-9.863-76.76-27.874l-26.616-28.692c.434-.658.868-1.314 1.309-1.952a7.565 7.565 0 0 0-12.445-8.601 128.628 128.628 0 0 0-4.759 7.434l-.007.009-.025.042-.068.111-.012.024A98.77 98.77 0 0 0 156.95 85.41a98.74 98.74 0 0 0-1.967 24.078c-7.124 2.842-12.388 9.341-13.479 17.171zm30.384 46.445v5.274h-8.886a6.61 6.61 0 0 1-6.602-6.602v-28.945a7.534 7.534 0 0 0 0-4.006v-9.16a6.61 6.61 0 0 1 6.602-6.602h8.886v50.041zm5.896-70.886a7.512 7.512 0 0 0-2.786 1.27 86.078 86.078 0 0 1-4.98 1.991 83.622 83.622 0 0 1 7.405-34.395c5.728 7.122 11.88 13.638 18.393 19.511-6.433 5.267-11.977 8.491-14.456 9.823a84.127 84.127 0 0 1-3.576 1.8zm9.232 70.887v-58.583c.502-.259 1.008-.511 1.505-.778 3.207-1.723 10.777-6.139 19.211-13.414 24.18 17.829 52.275 27.541 81.476 27.541 9.423 0 25.367-2.087 38.055-6.482v51.715c0 13.827-4.039 26.72-10.975 37.594h-51.112a7.565 7.565 0 0 0 0 15.128h38.123c-12.344 10.821-28.493 17.402-46.16 17.402-38.666.001-70.123-31.457-70.123-70.123zm12.871 122.161c17.912-4.191 30.422-19.966 30.422-38.361v-2.898a84.884 84.884 0 0 0 26.831 4.35 84.823 84.823 0 0 0 29.797-5.385v3.932c0 18.395 12.51 34.171 30.422 38.361l11.78 2.756c-12.141 18.321-30.827 31.203-52.513 35.901a7.58 7.58 0 0 0-1.803.646h-32.398a7.58 7.58 0 0 0-1.803-.646c-21.686-4.698-40.373-17.581-52.514-35.901l11.779-2.755zm158.628 195.509a6.104 6.104 0 0 1-6.097 6.097H163.133a6.104 6.104 0 0 1-6.097-6.097v-94.841a7.565 7.565 0 0 0-15.128 0v94.841c0 2.12.321 4.164.902 6.097h-14.012V351.98c0-23.599 16.048-43.836 39.027-49.212l4.73-1.107c7.845 13.386 18.533 24.58 31.181 32.908h-37.479c-13.426 0-24.349 10.923-24.349 24.349v8.693a7.565 7.565 0 0 0 15.128 0v-8.693c0-5.085 4.137-9.221 9.221-9.221h183.037c5.085 0 9.221 4.137 9.221 9.221v131.857z" fill="#1CC568"/><path d="M282.029 183.426a7.5 7.5 0 0 0-10.606 0c-3.743 3.742-8.719 5.803-14.011 5.803s-10.268-2.06-14.01-5.803a7.498 7.498 0 0 0-10.606 0 7.5 7.5 0 0 0 0 10.606c6.575 6.576 15.318 10.197 24.617 10.197s18.042-3.622 24.616-10.197a7.5 7.5 0 0 0 0-10.606z" fill="#1CC568"/></svg>