<svg xmlns="http://www.w3.org/2000/svg" viewBox="0 0 487 487" width="512" height="512"><g fill="#88f"><path d="M171.1 260.8c2.9-11.2 8.8-21.5 17.3-30.6-14.2-9.2-26.1-21.8-34.3-36.6h27.1c3.6 11.6 8.2 21.8 13.2 30.7 3.5-3.2 7.3-6.1 11.3-8.6 1.9-1.3 3.8-2.5 5.7-3.6-3.1-5.6-5.9-11.8-8.4-18.5h30.6v10.9c1.8-.3 3.6-.5 5.4-.5 2.1-.2 4.2-.3 6.2-.3 3.1 0 6.1.2 9 .6v-10.6h30.7c-2.3 6.5-5.1 12.5-8 17.9.6.3 1.1.6 1.7.9 6.6 3.7 11.5 8 14.9 11.7 5-8.9 9.6-19.1 13.1-30.6h27.1c-8 14.4-19.3 26.6-33 35.7 2.7 2 5.3 4.4 7.7 7.4 4.9 6.2 8.1 14 9.7 23.3 38.3-24.5 63.7-67.4 63.7-116.1C381.8 67.9 320 6 243.9 6 167.9 6 106 67.8 106 143.9c0 49.2 26.1 92.6 65.1 116.9zm171.3-146.1c2.7 9.2 4.2 19 4.2 29.1s-1.5 19.9-4.2 29.1h-30.9c1.5-9.1 2.4-18.7 2.4-29.1s-.9-20.1-2.4-29.1h30.9zM333.8 94h-27.1c-5.6-18.1-13.7-32.9-22.1-44.6 20.9 9.1 38.2 24.9 49.2 44.6zm-79.6-48.4c10 10.1 22.4 26 30.6 48.5h-30.6V45.6zm0 69.1h36.2c1.7 8.9 2.8 18.6 2.8 29.1s-1 20.2-2.7 29.1h-36.3v-58.2zM233.6 173h-36.2c-1.7-8.9-2.8-18.6-2.8-29.1s1-20.2 2.7-29.1h36.3V173zm0-79h-30.7c8.1-22.6 20.7-38.6 30.7-48.6V94zm-30.4-44.5c-8.4 11.7-16.5 26.5-22.1 44.6H154c11-19.8 28.3-35.6 49.2-44.6zm-62.1 94.3c0-10.1 1.5-19.9 4.2-29.1h30.9c-1.5 9.1-2.4 18.7-2.4 29.1s.9 20.1 2.4 29.1h-30.9c-2.7-9.2-4.2-19-4.2-29.1zM463.2 412c-23-8.8-36.7-17.7-36.7-17.7l-17.7 56-2.4 7.6-7.9-22.5c18.2-25.4-1.4-26.6-4.8-26.6h-.4c-3.4 0-23 1.2-4.8 26.6l-7.9 22.5-2.4-7.6-17.7-56s-7.7 5-21.3 11.3c-3.4-2.6-7.5-4.8-12.5-6.7-27.3-10.4-43.7-21.1-43.7-21.1l-21.1 66.6-2.9 9-9.4-26.7c21.7-30.2-1.6-31.7-5.7-31.7h-.4c-4 0-27.4 1.5-5.7 31.7l-9.4 26.7-2.9-9-21.1-66.6s-16.4 10.7-43.7 21.1c-5 1.8-9.1 4-12.5 6.7-13.6-6.2-21.3-11.3-21.3-11.3l-17.7 56-2.4 7.6-7.9-22.5c18.2-25.4-1.4-26.6-4.8-26.6h-.4c-3.4 0-23 1.2-4.8 26.6L81 457.9l-2.4-7.6-17.7-56s-13.8 9-36.7 17.7C-1.1 421.2.5 442 0 481h487c-.1-39 1.5-59.8-23.8-69z"/><path d="M381 266.7c-3.8 1.3-7.3 3.2-10.5 5.4-3.9 2.5-7.5 5.5-10.8 8.9-5.1 5.2-9.7 12-11.6 20.4-1.7 6.3-1.3 12.9.1 19.9.4 2.1.9 4.1 1.7 6.2-3.9-.4-8.4 1.9-4.1 17 3.1 11.1 6 14.2 8.2 14.3 2 13.2 12.2 29.9 28.8 35.7 6.8 2.4 14.3 2.4 21.2 0 16.4-5.9 26.9-22.6 28.9-35.7 2.2-.2 5.1-3.3 8.2-14.3 4.3-15.1-.3-17.4-4.1-17 .7-2.1 1.3-4.2 1.7-6.2 6.5-39.2-12.8-40.5-12.8-40.5s-3.2-6.1-11.6-10.8c-5.6-3.3-13.5-5.9-23.9-5-3.2 0-6.4.6-9.4 1.7zM54.8 358.8c2 13.2 12.2 29.9 28.8 35.7 6.8 2.4 14.3 2.4 21.2 0 16.4-5.9 26.9-22.6 28.9-35.7 2.2-.2 5.1-3.3 8.2-14.3 4.3-15.1-.3-17.4-4.1-17 .7-2.1 1.3-4.2 1.7-6.2 6.5-39.2-12.8-40.5-12.8-40.5s-3.2-6.1-11.6-10.8c-5.6-3.3-13.5-5.9-23.9-5-3.4.2-6.5.8-9.5 1.8-3.8 1.3-7.3 3.2-10.4 5.4-3.9 2.5-7.5 5.5-10.8 8.9-5.1 5.2-9.7 12-11.6 20.4-1.7 6.3-1.3 12.9.1 19.9.4 2.1.9 4.1 1.7 6.2-3.8-.4-8.4 1.9-4.1 17 3.1 10.9 6 14 8.2 14.2zm132.3-40.4c3.7 13.2 7.2 16.8 9.8 17.1 2.4 15.7 14.5 35.6 34.3 42.5 8.1 2.9 17.1 2.9 25.2-.1 19.5-7 32-26.9 34.4-42.5 2.6-.2 6.1-3.9 9.8-17.1 5.1-18-.3-20.7-4.9-20.2.9-2.5 1.5-5 2-7.4 7.8-46.6-15.2-48.2-15.2-48.2s-3.8-7.3-13.8-12.9c-6.7-4-16.1-7.1-28.4-6-4 .2-7.8 1-11.3 2.2-4.5 1.5-8.7 3.8-12.4 6.4-4.6 2.9-9 6.5-12.8 10.6-6.1 6.2-11.5 14.2-13.8 24.3-2 7.5-1.5 15.3.1 23.7.4 2.5 1.1 4.9 2 7.4-4.7-.4-10.1 2.2-5 20.2z"/></g></svg>