<svg xmlns="http://www.w3.org/2000/svg" viewBox="0 0 520.328 520.328" width="512" height="512"><g fill="#88f"><path d="M258.138 167.817c24.646 0 44.696-20.05 44.696-44.695 0-24.646-20.051-44.696-44.696-44.696-24.64 0-44.685 20.051-44.685 44.696-.001 24.645 20.045 44.695 44.685 44.695z"/><path d="M330.902 194.205c32.014-29.297 35.263-35.732 37.01-39.191 7.647-15.143 11.489-50.376 12.182-57.285 1.047-10.433-6.591-19.774-17.028-20.823a19.144 19.144 0 0 0-1.898-.095c-9.81 0-17.945 7.36-18.927 17.119-1.608 15.979-5.15 37.064-8.1 43.541-3.728 5.362-21.901 22.558-41.064 39.66h-65.824c-19.163-17.104-37.338-34.3-41.066-39.662-2.95-6.469-6.491-27.554-8.098-43.534a18.955 18.955 0 0 0-18.911-17.127c-.635 0-1.278.032-1.913.096-10.438 1.047-18.077 10.389-17.031 20.824.692 6.91 4.534 42.146 12.181 57.285 1.745 3.456 4.993 9.89 37.013 39.192a1489.591 1489.591 0 0 0 22.924 20.512v209.016c0 10.911 8.876 19.787 19.786 19.787 10.911 0 19.787-8.876 19.787-19.787V314.118h12.504v109.615c0 10.911 8.876 19.787 19.787 19.787s19.787-8.876 19.787-19.787l-.066-205.484c4.535-3.948 15.453-13.508 26.965-24.044z"/><path d="M162.338 244.228c-2.105-4.87-6.857-8.006-12.147-8.131l-47.916-.009a13.491 13.491 0 0 0-10.31 4.781L89.426 235a11.994 11.994 0 0 0-11.018-7.237H35.132c-5.852 0-9.117 2.841-11.017 7.237L.993 288.47a11.92 11.92 0 0 0-.144 9.181 11.917 11.917 0 0 0 6.391 6.59c1.516.657 3.116.99 4.758.99 4.79 0 9.113-2.841 11.014-7.237l4.859-11.237v103.528c0 7.284 5.928 13.21 13.213 13.21 7.284 0 13.21-5.926 13.21-13.21v-67.833h5.572v67.833c0 7.284 5.927 13.21 13.211 13.21 7.284 0 13.211-5.926 13.211-13.21v-71.546a13.461 13.461 0 0 0 2.357-3.662l5.397-12.483c.023.017.045.037.067.055v116.225c0 8.192 6.666 14.857 14.859 14.857 8.192 0 14.857-6.665 14.857-14.857v-77.101h6.266v77.101c0 8.192 6.665 14.857 14.858 14.857 8.192 0 14.857-6.665 14.857-14.857l.035-112.43 3.733 8.634a13.49 13.49 0 0 0 12.389 8.139 13.4 13.4 0 0 0 5.35-1.112 13.395 13.395 0 0 0 7.188-7.412 13.403 13.403 0 0 0-.16-10.325l-26.003-60.14zm-34.034-13.084c18.751 0 34.005-15.255 34.005-34.006 0-18.75-15.254-34.004-34.005-34.004-18.746 0-33.997 15.254-33.997 34.004 0 18.751 15.251 34.006 33.997 34.006zm-70.03-7.779c16.672 0 30.235-13.563 30.235-30.235 0-16.671-13.563-30.234-30.235-30.234-16.668 0-30.228 13.564-30.228 30.234.001 16.671 13.56 30.235 30.228 30.235zm299.745-26.227c0 18.751 15.254 34.006 34.005 34.006 18.746 0 33.997-15.255 33.997-34.006 0-18.75-15.251-34.004-33.997-34.004-18.751 0-34.005 15.254-34.005 34.004zm161.317 91.332L496.213 235a11.99 11.99 0 0 0-11.017-7.237H441.92A11.997 11.997 0 0 0 430.902 235l-2.539 5.87a13.491 13.491 0 0 0-10.31-4.781l-47.916.009c-5.858 0-10.042 3.261-12.147 8.131l-26.005 60.137a13.399 13.399 0 0 0-.16 10.325 13.393 13.393 0 0 0 7.187 7.412 13.49 13.49 0 0 0 17.74-7.027l3.733-8.634.035 112.43c0 8.192 6.665 14.857 14.858 14.857 8.193 0 14.858-6.665 14.858-14.857v-77.101h6.266v77.101c0 8.192 6.665 14.857 14.857 14.857 8.193 0 14.859-6.665 14.859-14.857V302.647l.067-.055 5.397 12.483a13.485 13.485 0 0 0 2.357 3.662v71.546c0 7.284 5.927 13.21 13.211 13.21s13.211-5.926 13.211-13.21V322.45h5.572v67.833c0 7.284 5.926 13.21 13.21 13.21 7.285 0 13.213-5.926 13.213-13.21V286.755l4.859 11.237a11.991 11.991 0 0 0 11.014 7.237c1.642 0 3.242-.333 4.756-.989a11.919 11.919 0 0 0 6.393-6.591 11.915 11.915 0 0 0-.142-9.179zm-57.282-65.105c16.668 0 30.228-13.563 30.228-30.235 0-16.671-13.56-30.234-30.228-30.234-16.672 0-30.235 13.564-30.235 30.234-.001 16.671 13.563 30.235 30.235 30.235z"/></g></svg>