<svg xmlns="http://www.w3.org/2000/svg" viewBox="0 0 488.1 488.1" width="512" height="512"><g fill="#88f"><path d="M327.7 342.8l-4.3-4.3-.5-.5c-23.8 14.1-51.2 21.7-79.3 21.7-35.3 0-68.9-11.7-96.2-33.3-7.4 5.1-15 10.8-22.4 16.9-5.9 4.8-9.3 12.1-9.3 19.7v36.1h256.5v-11.9l-37.7-37.7-6.8-6.7zm-78-220.5h-11.4c-26.2 0-47.5 21.3-47.5 47.5v52.7c0 8.3 4.2 15.5 10.6 19.8v45c12.9 6.6 27.3 10.2 42.3 10.2 15.2 0 29.8-3.6 42.8-10.4v-44.7c6.4-4.3 10.6-11.5 10.6-19.8v-52.7c.1-26.4-21.2-47.6-47.4-47.6zm230.6 185.4c-27.4-22.5-56.9-37.4-62.9-40.4-.7-.3-1.1-1-1.1-1.8v-42.6c5.4-3.6 8.9-9.7 8.9-16.6v-44.2c0-22-17.8-39.8-39.8-39.8h-9.2c14 22.7 22.1 48.7 23.1 75.8 1.2 30.2-6.4 59.8-21.6 85.4l.5.5 2 2 2.3 2.3 6.8 6.8 59.6 59.6h39.2v-30.3c0-6.5-2.9-12.6-7.8-16.7z"/><path d="M453.9 387.7L375.2 309l-6.8-6.8-2.3-2.3-2-2-5.3 5.3-11.4-11.4c45.2-53.3 42.7-133.3-7.7-183.7-26.5-26.5-61.3-39.8-96-39.8s-69.5 13.3-96 39.8c-53 53-53 139 0 192 26.5 26.5 61.3 39.8 96 39.8 31.2 0 62.4-10.7 87.7-32.1l11.4 11.4-5.3 5.3 4.3 4.3 6.8 6.8 78.7 78.7c3.7 3.7 8.5 5.5 13.3 5.5s9.6-1.8 13.3-5.5c7.3-7.3 7.3-19.2 0-26.6 0 .1 0 0 0 0zM323.7 284.2c-22.1 22.1-51.1 33.1-80 33.1-29 0-57.9-11-80-33.1-44.2-44.2-44.2-115.8 0-160 22.1-22.1 51.1-33.1 80-33.1 29 0 57.9 11 80 33.1 44.2 44.1 44.2 115.8 0 160z"/><path d="M111.4 122.3h-8.7c-22 0-39.8 17.8-39.8 39.8v44.2c0 6.9 3.5 13 8.9 16.6v42.6c0 .8-.4 1.4-1.1 1.8-6 2.9-35.5 17.9-62.9 40.4-4.9 4.1-7.8 10.2-7.8 16.6v30.3h97.2c2-10.3 7.4-19.6 15.6-26.3 6.6-5.4 13.3-10.5 19.9-15.2-51.1-52-58.2-131.2-21.3-190.8z"/></g></svg>