<?xml version="1.0" ?><!DOCTYPE svg  PUBLIC '-//W3C//DTD SVG 1.1//EN'  'http://www.w3.org/Graphics/SVG/1.1/DTD/svg11.dtd'><svg viewBox="0 0 1792 1792" xmlns="http://www.w3.org/2000/svg" xmlns:xlink="http://www.w3.org/1999/xlink"><style>:root>svg{display:none}:root>svg:target{display:block}</style><svg viewBox="0 0 128 128" id="arrow-left" xmlns="http://www.w3.org/2000/svg"><g fill="none" stroke="#b4b4b4" stroke-width="12" stroke-miterlimit="10"><g stroke-linecap="square"><path d="M57.12 103.334L17.787 64M17.787 64L57.12 24.666"/></g><path d="M17.787 64h100.426"/></g></svg><svg viewBox="0 0 128 128" id="arrow-left-hover" xmlns="http://www.w3.org/2000/svg"><g fill="none" stroke="#0076f4" stroke-width="12" stroke-miterlimit="10"><g stroke-linecap="square"><path d="M57.12 103.334L17.787 64M17.787 64L57.12 24.666"/></g><path d="M17.787 64h100.426"/></g></svg><svg viewBox="0 0 128 128" id="arrow-right" xmlns="http://www.w3.org/2000/svg"><g fill="none" stroke="#b4b4b4" stroke-width="12" stroke-miterlimit="10"><g stroke-linecap="square"><path d="M70.88 24.666L110.213 64M110.213 64L70.88 103.334"/></g><path d="M110.213 64H9.787"/></g></svg><svg viewBox="0 0 128 128" id="arrow-right-hover" xmlns="http://www.w3.org/2000/svg"><g fill="none" stroke="#0076f4" stroke-width="12" stroke-miterlimit="10"><g stroke-linecap="square"><path d="M70.88 24.666L110.213 64M110.213 64L70.88 103.334"/></g><path d="M110.213 64H9.787"/></g></svg><svg viewBox="0 -31 512 512" fill="#868686" id="cart" xmlns="http://www.w3.org/2000/svg"><path d="M164.96 300.004h.024c.02 0 .04-.004.059-.004H437a15.003 15.003 0 0 0 14.422-10.879l60-210a15.003 15.003 0 0 0-2.445-13.152A15.006 15.006 0 0 0 497 60H130.367l-10.722-48.254A15.003 15.003 0 0 0 105 0H15C6.715 0 0 6.715 0 15s6.715 15 15 15h77.969c1.898 8.55 51.312 230.918 54.156 243.71C131.184 280.64 120 296.536 120 315c0 24.812 20.188 45 45 45h272c8.285 0 15-6.715 15-15s-6.715-15-15-15H165c-8.27 0-15-6.73-15-15 0-8.258 6.707-14.977 14.96-14.996zM477.114 90l-51.43 180H177.032l-40-180zm0 0M150 405c0 24.813 20.188 45 45 45s45-20.188 45-45-20.188-45-45-45-45 20.188-45 45zm45-15c8.27 0 15 6.73 15 15s-6.73 15-15 15-15-6.73-15-15 6.73-15 15-15zm0 0M362 405c0 24.813 20.188 45 45 45s45-20.188 45-45-20.188-45-45-45-45 20.188-45 45zm45-15c8.27 0 15 6.73 15 15s-6.73 15-15 15-15-6.73-15-15 6.73-15 15-15zm0 0"/></svg><svg viewBox="0 -31 512 512" fill="#0076f4" id="cart-hover" xmlns="http://www.w3.org/2000/svg"><path d="M164.96 300.004h.024c.02 0 .04-.004.059-.004H437a15.003 15.003 0 0 0 14.422-10.879l60-210a15.003 15.003 0 0 0-2.445-13.152A15.006 15.006 0 0 0 497 60H130.367l-10.722-48.254A15.003 15.003 0 0 0 105 0H15C6.715 0 0 6.715 0 15s6.715 15 15 15h77.969c1.898 8.55 51.312 230.918 54.156 243.71C131.184 280.64 120 296.536 120 315c0 24.812 20.188 45 45 45h272c8.285 0 15-6.715 15-15s-6.715-15-15-15H165c-8.27 0-15-6.73-15-15 0-8.258 6.707-14.977 14.96-14.996zM477.114 90l-51.43 180H177.032l-40-180zm0 0M150 405c0 24.813 20.188 45 45 45s45-20.188 45-45-20.188-45-45-45-45 20.188-45 45zm45-15c8.27 0 15 6.73 15 15s-6.73 15-15 15-15-6.73-15-15 6.73-15 15-15zm0 0M362 405c0 24.813 20.188 45 45 45s45-20.188 45-45-20.188-45-45-45-45 20.188-45 45zm45-15c8.27 0 15 6.73 15 15s-6.73 15-15 15-15-6.73-15-15 6.73-15 15-15zm0 0"/></svg><svg fill="#e7e5e5" viewBox="0 0 510 510" id="cart2" xmlns="http://www.w3.org/2000/svg"><path d="M153 408c-28.05 0-51 22.95-51 51s22.95 51 51 51 51-22.95 51-51-22.95-51-51-51zM0 0v51h51l91.8 193.8-35.7 61.2c-2.55 7.65-5.1 17.85-5.1 25.5 0 28.05 22.95 51 51 51h306v-51H163.2c-2.55 0-5.1-2.55-5.1-5.1v-2.551l22.95-43.35h188.7c20.4 0 35.7-10.2 43.35-25.5L504.9 89.25c5.1-5.1 5.1-7.65 5.1-12.75 0-15.3-10.2-25.5-25.5-25.5H107.1L84.15 0H0zm408 408c-28.05 0-51 22.95-51 51s22.95 51 51 51 51-22.95 51-51-22.95-51-51-51z"/></svg><svg fill="#0076f4" viewBox="0 0 510 510" id="cart2-hover" xmlns="http://www.w3.org/2000/svg"><path d="M153 408c-28.05 0-51 22.95-51 51s22.95 51 51 51 51-22.95 51-51-22.95-51-51-51zM0 0v51h51l91.8 193.8-35.7 61.2c-2.55 7.65-5.1 17.85-5.1 25.5 0 28.05 22.95 51 51 51h306v-51H163.2c-2.55 0-5.1-2.55-5.1-5.1v-2.551l22.95-43.35h188.7c20.4 0 35.7-10.2 43.35-25.5L504.9 89.25c5.1-5.1 5.1-7.65 5.1-12.75 0-15.3-10.2-25.5-25.5-25.5H107.1L84.15 0H0zm408 408c-28.05 0-51 22.95-51 51s22.95 51 51 51 51-22.95 51-51-22.95-51-51-51z"/></svg><svg viewBox="0 0 442.533 442.533" id="check" xmlns="http://www.w3.org/2000/svg"><path d="M434.539 98.499l-38.828-38.828c-5.324-5.328-11.799-7.993-19.41-7.993-7.618 0-14.093 2.665-19.417 7.993L169.59 247.248l-83.939-84.225c-5.33-5.33-11.801-7.992-19.412-7.992-7.616 0-14.087 2.662-19.417 7.992L7.994 201.852C2.664 207.181 0 213.654 0 221.269c0 7.609 2.664 14.088 7.994 19.416l103.351 103.349 38.831 38.828c5.327 5.332 11.8 7.994 19.414 7.994 7.611 0 14.084-2.669 19.414-7.994l38.83-38.828L434.539 137.33c5.325-5.33 7.994-11.802 7.994-19.417.004-7.611-2.669-14.084-7.994-19.414z"/></svg><svg fill="#fff" viewBox="0 0 442.533 442.533" id="check-white" xmlns="http://www.w3.org/2000/svg"><path d="M434.539 98.499l-38.828-38.828c-5.324-5.328-11.799-7.993-19.41-7.993-7.618 0-14.093 2.665-19.417 7.993L169.59 247.248l-83.939-84.225c-5.33-5.33-11.801-7.992-19.412-7.992-7.616 0-14.087 2.662-19.417 7.992L7.994 201.852C2.664 207.181 0 213.654 0 221.269c0 7.609 2.664 14.088 7.994 19.416l103.351 103.349 38.831 38.828c5.327 5.332 11.8 7.994 19.414 7.994 7.611 0 14.084-2.669 19.414-7.994l38.83-38.828L434.539 137.33c5.325-5.33 7.994-11.802 7.994-19.417.004-7.611-2.669-14.084-7.994-19.414z"/></svg><svg fill="#b2b2b2" viewBox="0 0 512 512" id="chevron-down" xmlns="http://www.w3.org/2000/svg"><path d="M256 298.3l174.2-167.2c4.3-4.2 11.4-4.1 15.8.2l30.6 29.9c4.4 4.3 4.5 11.3.2 15.5L264.1 380.9c-2.2 2.2-5.2 3.2-8.1 3-3 .1-5.9-.9-8.1-3L35.2 176.7c-4.3-4.2-4.2-11.2.2-15.5L66 131.3c4.4-4.3 11.5-4.4 15.8-.2L256 298.3z"/></svg><svg fill="#0076f4" viewBox="0 0 512 512" id="chevron-down-hover" xmlns="http://www.w3.org/2000/svg"><path d="M256 298.3l174.2-167.2c4.3-4.2 11.4-4.1 15.8.2l30.6 29.9c4.4 4.3 4.5 11.3.2 15.5L264.1 380.9c-2.2 2.2-5.2 3.2-8.1 3-3 .1-5.9-.9-8.1-3L35.2 176.7c-4.3-4.2-4.2-11.2.2-15.5L66 131.3c4.4-4.3 11.5-4.4 15.8-.2L256 298.3z"/></svg><svg fill="#ccc" viewBox="0 0 512 512" id="chevron-right" xmlns="http://www.w3.org/2000/svg"><path d="M298.3 256L131.1 81.9c-4.2-4.3-4.1-11.4.2-15.8l29.9-30.6c4.3-4.4 11.3-4.5 15.5-.2L380.9 248c2.2 2.2 3.2 5.2 3 8.1.1 3-.9 5.9-3 8.1L176.7 476.8c-4.2 4.3-11.2 4.2-15.5-.2L131.3 446c-4.3-4.4-4.4-11.5-.2-15.8L298.3 256z"/></svg><svg fill="#b2b2b2" viewBox="0 0 94.49 94.49" id="cross-grey" xmlns="http://www.w3.org/2000/svg"><path d="M92.49 35.284H59.206V2a2 2 0 0 0-2-2H37.284a2 2 0 0 0-2 2v33.284H2a2 2 0 0 0-2 2v19.922a2 2 0 0 0 2 2h33.284V92.49a2 2 0 0 0 2 2h19.922a2 2 0 0 0 2-2V59.206H92.49a2 2 0 0 0 2-2V37.284a2 2 0 0 0-2-2z"/></svg><svg viewBox="0 0 512 512" id="facebook" xmlns="http://www.w3.org/2000/svg"><path d="M134.941 272.691h56.123v231.051a8.256 8.256 0 0 0 8.258 8.258h95.159a8.256 8.256 0 0 0 8.258-8.258V273.78h64.519a8.26 8.26 0 0 0 8.204-7.315l9.799-85.061a8.259 8.259 0 0 0-8.202-9.203h-74.316V118.88c0-16.073 8.654-24.224 25.726-24.224h48.59a8.258 8.258 0 0 0 8.258-8.258V8.319a8.256 8.256 0 0 0-8.258-8.258h-66.965A65.863 65.863 0 0 0 307.027 0c-11.619 0-52.006 2.281-83.909 31.63-35.348 32.524-30.434 71.465-29.26 78.217v62.352H134.94a8.256 8.256 0 0 0-8.258 8.258v83.975a8.26 8.26 0 0 0 8.259 8.259z" fill="#385c8e"/></svg><svg fill="#666" viewBox="0 0 96.124 96.123" id="facebook-logo" xmlns="http://www.w3.org/2000/svg"><path d="M72.089.02L59.624 0C45.62 0 36.57 9.285 36.57 23.656v10.907H24.037a1.96 1.96 0 0 0-1.96 1.961v15.803a1.96 1.96 0 0 0 1.96 1.96H36.57v39.876a1.96 1.96 0 0 0 1.96 1.96h16.352a1.96 1.96 0 0 0 1.96-1.96V54.287h14.654a1.96 1.96 0 0 0 1.96-1.96l.006-15.803a1.963 1.963 0 0 0-1.961-1.961H56.842v-9.246c0-4.444 1.059-6.7 6.848-6.7l8.397-.003a1.96 1.96 0 0 0 1.959-1.96V1.98A1.96 1.96 0 0 0 72.089.02z"/></svg><svg fill="#0076f4" viewBox="0 0 96.124 96.123" id="facebook-logo-hover" xmlns="http://www.w3.org/2000/svg"><path d="M72.089.02L59.624 0C45.62 0 36.57 9.285 36.57 23.656v10.907H24.037a1.96 1.96 0 0 0-1.96 1.961v15.803a1.96 1.96 0 0 0 1.96 1.96H36.57v39.876a1.96 1.96 0 0 0 1.96 1.96h16.352a1.96 1.96 0 0 0 1.96-1.96V54.287h14.654a1.96 1.96 0 0 0 1.96-1.96l.006-15.803a1.963 1.963 0 0 0-1.961-1.961H56.842v-9.246c0-4.444 1.059-6.7 6.848-6.7l8.397-.003a1.96 1.96 0 0 0 1.959-1.96V1.98A1.96 1.96 0 0 0 72.089.02z"/></svg><svg viewBox="0 0 16 16" id="grid" xmlns="http://www.w3.org/2000/svg"><path d="M2 5h3v3H2zm4 0h3v3H6zm4 0h3v3h-3zM6 9h3v3H6zm4 0h3v3h-3zM2 9h3v3H2zm5-3v1h1V6zm4 0v1h1V6zm-4 4v1h1v-1zm4 0v1h1v-1zM3 6v1h1V6zm0 4v1h1v-1zm0 0" fill="#E7E7E7" fill-rule="evenodd"/></svg><svg viewBox="0 0 16 16" id="grid-hover" xmlns="http://www.w3.org/2000/svg"><path d="M2 5h3v3H2zm4 0h3v3H6zm4 0h3v3h-3zM6 9h3v3H6zm4 0h3v3h-3zM2 9h3v3H2zm5-3v1h1V6zm4 0v1h1V6zm-4 4v1h1v-1zm4 0v1h1v-1zM3 6v1h1V6zm0 4v1h1v-1zm0 0" fill="#0076F4" fill-rule="evenodd"/></svg><svg viewBox="0 0 471.701 471.701" fill="#868686" id="heart" xmlns="http://www.w3.org/2000/svg"><path d="M433.601 67.001c-24.7-24.7-57.4-38.2-92.3-38.2s-67.7 13.6-92.4 38.3l-12.9 12.9-13.1-13.1c-24.7-24.7-57.6-38.4-92.5-38.4-34.8 0-67.6 13.6-92.2 38.2-24.7 24.7-38.3 57.5-38.2 92.4 0 34.9 13.7 67.6 38.4 92.3l187.8 187.8c2.6 2.6 6.1 4 9.5 4 3.4 0 6.9-1.3 9.5-3.9l188.2-187.5c24.7-24.7 38.3-57.5 38.3-92.4.1-34.9-13.4-67.7-38.1-92.4zm-19.2 165.7l-178.7 178-178.3-178.3c-19.6-19.6-30.4-45.6-30.4-73.3s10.7-53.7 30.3-73.2c19.5-19.5 45.5-30.3 73.1-30.3 27.7 0 53.8 10.8 73.4 30.4l22.6 22.6c5.3 5.3 13.8 5.3 19.1 0l22.4-22.4c19.6-19.6 45.7-30.4 73.3-30.4 27.6 0 53.6 10.8 73.2 30.3 19.6 19.6 30.3 45.6 30.3 73.3.1 27.7-10.7 53.7-30.3 73.3z"/></svg><svg viewBox="0 0 471.701 471.701" fill="#0076f4" id="heart-hover" xmlns="http://www.w3.org/2000/svg"><path d="M433.601 67.001c-24.7-24.7-57.4-38.2-92.3-38.2s-67.7 13.6-92.4 38.3l-12.9 12.9-13.1-13.1c-24.7-24.7-57.6-38.4-92.5-38.4-34.8 0-67.6 13.6-92.2 38.2-24.7 24.7-38.3 57.5-38.2 92.4 0 34.9 13.7 67.6 38.4 92.3l187.8 187.8c2.6 2.6 6.1 4 9.5 4 3.4 0 6.9-1.3 9.5-3.9l188.2-187.5c24.7-24.7 38.3-57.5 38.3-92.4.1-34.9-13.4-67.7-38.1-92.4zm-19.2 165.7l-178.7 178-178.3-178.3c-19.6-19.6-30.4-45.6-30.4-73.3s10.7-53.7 30.3-73.2c19.5-19.5 45.5-30.3 73.1-30.3 27.7 0 53.8 10.8 73.4 30.4l22.6 22.6c5.3 5.3 13.8 5.3 19.1 0l22.4-22.4c19.6-19.6 45.7-30.4 73.3-30.4 27.6 0 53.6 10.8 73.2 30.3 19.6 19.6 30.3 45.6 30.3 73.3.1 27.7-10.7 53.7-30.3 73.3z"/></svg><svg viewBox="0 0 471.701 471.701" fill="#dcd9d9" id="heart-light" xmlns="http://www.w3.org/2000/svg"><path d="M433.601 67.001c-24.7-24.7-57.4-38.2-92.3-38.2s-67.7 13.6-92.4 38.3l-12.9 12.9-13.1-13.1c-24.7-24.7-57.6-38.4-92.5-38.4-34.8 0-67.6 13.6-92.2 38.2-24.7 24.7-38.3 57.5-38.2 92.4 0 34.9 13.7 67.6 38.4 92.3l187.8 187.8c2.6 2.6 6.1 4 9.5 4 3.4 0 6.9-1.3 9.5-3.9l188.2-187.5c24.7-24.7 38.3-57.5 38.3-92.4.1-34.9-13.4-67.7-38.1-92.4zm-19.2 165.7l-178.7 178-178.3-178.3c-19.6-19.6-30.4-45.6-30.4-73.3s10.7-53.7 30.3-73.2c19.5-19.5 45.5-30.3 73.1-30.3 27.7 0 53.8 10.8 73.4 30.4l22.6 22.6c5.3 5.3 13.8 5.3 19.1 0l22.4-22.4c19.6-19.6 45.7-30.4 73.3-30.4 27.6 0 53.6 10.8 73.2 30.3 19.6 19.6 30.3 45.6 30.3 73.3.1 27.7-10.7 53.7-30.3 73.3z"/></svg><svg viewBox="0 0 471.701 471.701" fill="#0076f4" id="heart-light-hover" xmlns="http://www.w3.org/2000/svg"><path d="M433.601 67.001c-24.7-24.7-57.4-38.2-92.3-38.2s-67.7 13.6-92.4 38.3l-12.9 12.9-13.1-13.1c-24.7-24.7-57.6-38.4-92.5-38.4-34.8 0-67.6 13.6-92.2 38.2-24.7 24.7-38.3 57.5-38.2 92.4 0 34.9 13.7 67.6 38.4 92.3l187.8 187.8c2.6 2.6 6.1 4 9.5 4 3.4 0 6.9-1.3 9.5-3.9l188.2-187.5c24.7-24.7 38.3-57.5 38.3-92.4.1-34.9-13.4-67.7-38.1-92.4zm-19.2 165.7l-178.7 178-178.3-178.3c-19.6-19.6-30.4-45.6-30.4-73.3s10.7-53.7 30.3-73.2c19.5-19.5 45.5-30.3 73.1-30.3 27.7 0 53.8 10.8 73.4 30.4l22.6 22.6c5.3 5.3 13.8 5.3 19.1 0l22.4-22.4c19.6-19.6 45.7-30.4 73.3-30.4 27.6 0 53.6 10.8 73.2 30.3 19.6 19.6 30.3 45.6 30.3 73.3.1 27.7-10.7 53.7-30.3 73.3z"/></svg><svg fill="#666" viewBox="0 0 169.063 169.063" id="instagram-logo" xmlns="http://www.w3.org/2000/svg"><path d="M122.406 0H46.654C20.929 0 0 20.93 0 46.655v75.752c0 25.726 20.929 46.655 46.654 46.655h75.752c25.727 0 46.656-20.93 46.656-46.655V46.655C169.063 20.93 148.133 0 122.406 0zm31.657 122.407c0 17.455-14.201 31.655-31.656 31.655H46.654C29.2 154.063 15 139.862 15 122.407V46.655C15 29.201 29.2 15 46.654 15h75.752c17.455 0 31.656 14.201 31.656 31.655v75.752z"/><path d="M84.531 40.97c-24.021 0-43.563 19.542-43.563 43.563 0 24.02 19.542 43.561 43.563 43.561s43.563-19.541 43.563-43.561c0-24.021-19.542-43.563-43.563-43.563zm0 72.123c-15.749 0-28.563-12.812-28.563-28.561 0-15.75 12.813-28.563 28.563-28.563s28.563 12.813 28.563 28.563c0 15.749-12.814 28.561-28.563 28.561zM129.921 28.251c-2.89 0-5.729 1.17-7.77 3.22a11.053 11.053 0 0 0-3.23 7.78c0 2.891 1.18 5.73 3.23 7.78 2.04 2.04 4.88 3.22 7.77 3.22 2.9 0 5.73-1.18 7.78-3.22 2.05-2.05 3.22-4.89 3.22-7.78 0-2.9-1.17-5.74-3.22-7.78-2.04-2.05-4.88-3.22-7.78-3.22z"/></svg><svg fill="#0076f4" viewBox="0 0 169.063 169.063" id="instagram-logo-hover" xmlns="http://www.w3.org/2000/svg"><path d="M122.406 0H46.654C20.929 0 0 20.93 0 46.655v75.752c0 25.726 20.929 46.655 46.654 46.655h75.752c25.727 0 46.656-20.93 46.656-46.655V46.655C169.063 20.93 148.133 0 122.406 0zm31.657 122.407c0 17.455-14.201 31.655-31.656 31.655H46.654C29.2 154.063 15 139.862 15 122.407V46.655C15 29.201 29.2 15 46.654 15h75.752c17.455 0 31.656 14.201 31.656 31.655v75.752z"/><path d="M84.531 40.97c-24.021 0-43.563 19.542-43.563 43.563 0 24.02 19.542 43.561 43.563 43.561s43.563-19.541 43.563-43.561c0-24.021-19.542-43.563-43.563-43.563zm0 72.123c-15.749 0-28.563-12.812-28.563-28.561 0-15.75 12.813-28.563 28.563-28.563s28.563 12.813 28.563 28.563c0 15.749-12.814 28.561-28.563 28.561zM129.921 28.251c-2.89 0-5.729 1.17-7.77 3.22a11.053 11.053 0 0 0-3.23 7.78c0 2.891 1.18 5.73 3.23 7.78 2.04 2.04 4.88 3.22 7.77 3.22 2.9 0 5.73-1.18 7.78-3.22 2.05-2.05 3.22-4.89 3.22-7.78 0-2.9-1.17-5.74-3.22-7.78-2.04-2.05-4.88-3.22-7.78-3.22z"/></svg><svg viewBox="0 -52 512 512" fill="#e7e7e7" id="list" xmlns="http://www.w3.org/2000/svg"><path d="M0 0h113.293v113.293H0zm0 0M149.297 0H512v113.293H149.297zm0 0M0 147.008h113.293V260.3H0zm0 0M149.297 147.008H512V260.3H149.297zm0 0M0 294.012h113.293v113.297H0zm0 0M149.297 294.012H512v113.297H149.297zm0 0"/></svg><svg viewBox="0 -52 512 512" fill="#0076f4" id="list-hover" xmlns="http://www.w3.org/2000/svg"><path d="M0 0h113.293v113.293H0zm0 0M149.297 0H512v113.293H149.297zm0 0M0 147.008h113.293V260.3H0zm0 0M149.297 147.008H512V260.3H149.297zm0 0M0 294.012h113.293v113.297H0zm0 0M149.297 294.012H512v113.297H149.297zm0 0"/></svg><svg fill="#dcd9d9" viewBox="0 0 459 459" id="list-thin" xmlns="http://www.w3.org/2000/svg"><path d="M0 255h51v-51H0v51zm0 102h51v-51H0v51zm0-204h51v-51H0v51zm102 102h357v-51H102v51zm0 102h357v-51H102v51zm0-255v51h357v-51H102z"/></svg><svg fill="#0076f4" viewBox="0 0 459 459" id="list-thin-hover" xmlns="http://www.w3.org/2000/svg"><path d="M0 255h51v-51H0v51zm0 102h51v-51H0v51zm0-204h51v-51H0v51zm102 102h357v-51H102v51zm0 102h357v-51H102v51zm0-255v51h357v-51H102z"/></svg><svg viewBox="0 0 24 24" fill="#868686" id="magnifier" xmlns="http://www.w3.org/2000/svg"><path d="M22.4 19.6l-4.8-4.8c.9-1.4 1.4-3 1.4-4.8 0-5-4-9-9-9s-9 4-9 9 4 9 9 9c1.8 0 3.4-.5 4.8-1.4l4.8 4.8c.4.4.9.6 1.4.6 1.1 0 2-.9 2-2 0-.6-.2-1.1-.6-1.4zM5 10c0-2.8 2.2-5 5-5s5 2.2 5 5-2.2 5-5 5-5-2.2-5-5z"/></svg><svg viewBox="0 0 563.43 563.43" fill="#868686" id="profile" xmlns="http://www.w3.org/2000/svg"><path d="M280.79 314.559c83.266 0 150.803-67.538 150.803-150.803S364.055 13.415 280.79 13.415 129.987 80.953 129.987 163.756s67.537 150.803 150.803 150.803zm0-261.824c61.061 0 111.021 49.959 111.021 111.021s-49.96 111.02-111.021 111.02-111.021-49.959-111.021-111.021 49.959-111.02 111.021-111.02zM19.891 550.015h523.648c11.102 0 19.891-8.789 19.891-19.891 0-104.082-84.653-189.198-189.198-189.198H189.198C85.116 340.926 0 425.579 0 530.124c0 11.102 8.789 19.891 19.891 19.891zm169.307-169.307h185.034c75.864 0 138.313 56.436 148.028 129.524H41.17c9.714-72.625 72.164-129.524 148.028-129.524z"/></svg><svg viewBox="0 0 563.43 563.43" fill="#0076f4" id="profile-hover" xmlns="http://www.w3.org/2000/svg"><path d="M280.79 314.559c83.266 0 150.803-67.538 150.803-150.803S364.055 13.415 280.79 13.415 129.987 80.953 129.987 163.756s67.537 150.803 150.803 150.803zm0-261.824c61.061 0 111.021 49.959 111.021 111.021s-49.96 111.02-111.021 111.02-111.021-49.959-111.021-111.021 49.959-111.02 111.021-111.02zM19.891 550.015h523.648c11.102 0 19.891-8.789 19.891-19.891 0-104.082-84.653-189.198-189.198-189.198H189.198C85.116 340.926 0 425.579 0 530.124c0 11.102 8.789 19.891 19.891 19.891zm169.307-169.307h185.034c75.864 0 138.313 56.436 148.028 129.524H41.17c9.714-72.625 72.164-129.524 148.028-129.524z"/></svg><svg fill="#ffa812" viewBox="0 0 612.001 612" id="star" xmlns="http://www.w3.org/2000/svg"><path d="M610.588 230.612c-1.66-7.649-8.976-12.311-16.958-12.311H390.41L323.898 26.399c-2.896-8.352-8.649-12.311-17.632-12.311-8.976 0-15.063 3.959-17.958 12.311l-66.52 191.902H18.576c-8.983 0-14.638 3.995-17.632 12.311-2.328 8.976-.355 15.66 5.988 20.619l162.975 127.384-59.204 195.23c-2.597 8.571 0 15.631 6.655 20.619 7.315 4.328 14.979 4.86 21.946 0l166.962-116.407 166.628 116.407c3.555 2.483 7.322 3.327 10.977 3.327 10.31 0 18.292-7.982 18.292-18.292 0-1.66-.227-4.022-1.327-7.648l-58.537-193.236 162.968-127.384c6.555-5.123 8.315-11.977 5.321-20.619zM409.703 357.329c-5.605 4.378-8.352 12.871-6.315 19.619L450.615 533.6l-134.373-93.128c-6.748-4.676-13.765-4.52-20.286 0L161.591 533.6l47.227-156.652c2.036-6.748-.709-15.241-6.322-19.619L71.792 255.219h163.634c8.315 0 14.056-3.959 16.965-12.304l53.875-154.658 53.549 154.658c2.888 8.352 8.649 12.304 17.291 12.304h163.308l-130.711 102.11z"/></svg><svg fill="#e7e5e5" viewBox="0 0 612.001 612" id="star-disabled" xmlns="http://www.w3.org/2000/svg"><path d="M610.588 230.612c-1.66-7.649-8.976-12.311-16.958-12.311H390.41L323.898 26.399c-2.896-8.352-8.649-12.311-17.632-12.311-8.976 0-15.063 3.959-17.958 12.311l-66.52 191.902H18.576c-8.983 0-14.638 3.995-17.632 12.311-2.328 8.976-.355 15.66 5.988 20.619l162.975 127.384-59.204 195.23c-2.597 8.571 0 15.631 6.655 20.619 7.315 4.328 14.979 4.86 21.946 0l166.962-116.407 166.628 116.407c3.555 2.483 7.322 3.327 10.977 3.327 10.31 0 18.292-7.982 18.292-18.292 0-1.66-.227-4.022-1.327-7.648l-58.537-193.236 162.968-127.384c6.555-5.123 8.315-11.977 5.321-20.619zM409.703 357.329c-5.605 4.378-8.352 12.871-6.315 19.619L450.615 533.6l-134.373-93.128c-6.748-4.676-13.765-4.52-20.286 0L161.591 533.6l47.227-156.652c2.036-6.748-.709-15.241-6.322-19.619L71.792 255.219h163.634c8.315 0 14.056-3.959 16.965-12.304l53.875-154.658 53.549 154.658c2.888 8.352 8.649 12.304 17.291 12.304h163.308l-130.711 102.11z"/></svg><svg viewBox="0 0 88 88" fill="#ffa812" id="star-hover" xmlns="http://www.w3.org/2000/svg"><path d="M44 0l11.939 33.612H88L61.842 53.351 71.193 88 44 67.226 16.809 88l9.349-34.649L0 33.612h32.061z"/></svg><svg fill="#666" viewBox="0 0 1792 1792" id="times" xmlns="http://www.w3.org/2000/svg"><path d="M1490 1322q0 40-28 68l-136 136q-28 28-68 28t-68-28l-294-294-294 294q-28 28-68 28t-68-28l-136-136q-28-28-28-68t28-68l294-294-294-294q-28-28-28-68t28-68l136-136q28-28 68-28t68 28l294 294 294-294q28-28 68-28t68 28l136 136q28 28 28 68t-28 68l-294 294 294 294q28 28 28 68z"/></svg><svg fill="#0076f4" viewBox="0 0 1792 1792" id="times-hover" xmlns="http://www.w3.org/2000/svg"><path d="M1490 1322q0 40-28 68l-136 136q-28 28-68 28t-68-28l-294-294-294 294q-28 28-68 28t-68-28l-136-136q-28-28-28-68t28-68l294-294-294-294q-28-28-28-68t28-68l136-136q28-28 68-28t68 28l294 294 294-294q28-28 68-28t68 28l136 136q28 28 28 68t-28 68l-294 294 294 294q28 28 28 68z"/></svg><svg viewBox="0 0 512 512" id="twitter" xmlns="http://www.w3.org/2000/svg"><path d="M512 97.248c-19.04 8.352-39.328 13.888-60.48 16.576 21.76-12.992 38.368-33.408 46.176-58.016-20.288 12.096-42.688 20.64-66.56 25.408C411.872 60.704 384.416 48 354.464 48c-58.112 0-104.896 47.168-104.896 104.992 0 8.32.704 16.32 2.432 23.936-87.264-4.256-164.48-46.08-216.352-109.792-9.056 15.712-14.368 33.696-14.368 53.056 0 36.352 18.72 68.576 46.624 87.232-16.864-.32-33.408-5.216-47.424-12.928v1.152c0 51.008 36.384 93.376 84.096 103.136-8.544 2.336-17.856 3.456-27.52 3.456-6.72 0-13.504-.384-19.872-1.792 13.6 41.568 52.192 72.128 98.08 73.12-35.712 27.936-81.056 44.768-130.144 44.768-8.608 0-16.864-.384-25.12-1.44C46.496 446.88 101.6 464 161.024 464c193.152 0 298.752-160 298.752-298.688 0-4.64-.16-9.12-.384-13.568 20.832-14.784 38.336-33.248 52.608-54.496z" fill="#03a9f4"/></svg><svg viewBox="0 0 612 612" fill="#666" id="twitter-logo" xmlns="http://www.w3.org/2000/svg"><path d="M612 116.258a250.714 250.714 0 0 1-72.088 19.772c25.929-15.527 45.777-40.155 55.184-69.411-24.322 14.379-51.169 24.82-79.775 30.48-22.907-24.437-55.49-39.658-91.63-39.658-69.334 0-125.551 56.217-125.551 125.513 0 9.828 1.109 19.427 3.251 28.606-104.326-5.24-196.835-55.223-258.75-131.174-10.823 18.51-16.98 40.078-16.98 63.101 0 43.559 22.181 81.993 55.835 104.479a125.556 125.556 0 0 1-56.867-15.756v1.568c0 60.806 43.291 111.554 100.693 123.104-10.517 2.83-21.607 4.398-33.08 4.398-8.107 0-15.947-.803-23.634-2.333 15.985 49.907 62.336 86.199 117.253 87.194-42.947 33.654-97.099 53.655-155.916 53.655-10.134 0-20.116-.612-29.944-1.721 55.567 35.681 121.536 56.485 192.438 56.485 230.948 0 357.188-191.291 357.188-357.188l-.421-16.253c24.666-17.593 46.005-39.697 62.794-64.861z"/></svg><svg viewBox="0 0 612 612" fill="#0076f4" id="twitter-logo-hover" xmlns="http://www.w3.org/2000/svg"><path d="M612 116.258a250.714 250.714 0 0 1-72.088 19.772c25.929-15.527 45.777-40.155 55.184-69.411-24.322 14.379-51.169 24.82-79.775 30.48-22.907-24.437-55.49-39.658-91.63-39.658-69.334 0-125.551 56.217-125.551 125.513 0 9.828 1.109 19.427 3.251 28.606-104.326-5.24-196.835-55.223-258.75-131.174-10.823 18.51-16.98 40.078-16.98 63.101 0 43.559 22.181 81.993 55.835 104.479a125.556 125.556 0 0 1-56.867-15.756v1.568c0 60.806 43.291 111.554 100.693 123.104-10.517 2.83-21.607 4.398-33.08 4.398-8.107 0-15.947-.803-23.634-2.333 15.985 49.907 62.336 86.199 117.253 87.194-42.947 33.654-97.099 53.655-155.916 53.655-10.134 0-20.116-.612-29.944-1.721 55.567 35.681 121.536 56.485 192.438 56.485 230.948 0 357.188-191.291 357.188-357.188l-.421-16.253c24.666-17.593 46.005-39.697 62.794-64.861z"/></svg><svg fill="#666" viewBox="0 0 32 32" id="youtube-logo" xmlns="http://www.w3.org/2000/svg"><path d="M30.4 10.227a4.307 4.307 0 0 0-4.305-4.308H5.904a4.307 4.307 0 0 0-4.305 4.308v11.547a4.308 4.308 0 0 0 4.305 4.309h20.191a4.308 4.308 0 0 0 4.305-4.309V10.227zM13.119 20.871V10.025l8.225 5.423-8.225 5.423z"/></svg><svg fill="#0076f4" viewBox="0 0 32 32" id="youtube-logo-hover" xmlns="http://www.w3.org/2000/svg"><path d="M30.4 10.227a4.307 4.307 0 0 0-4.305-4.308H5.904a4.307 4.307 0 0 0-4.305 4.308v11.547a4.308 4.308 0 0 0 4.305 4.309h20.191a4.308 4.308 0 0 0 4.305-4.309V10.227zM13.119 20.871V10.025l8.225 5.423-8.225 5.423z"/></svg></svg>